<svg version="1.1" xmlns="http://www.w3.org/2000/svg" xmlns:xlink="http://www.w3.org/1999/xlink" x="0px" y="0px"
	 width="24.4px" height="24.4px" viewBox="0 0 24.4 24.4" enable-background="new 0 0 24.4 24.4" xml:space="preserve">
<g id="circle_x5F_question_x5F_mark">
	<path fill="#989898" d="M14.2,19.7c0,0.3-0.2,0.5-0.5,0.5h-3c-0.3,0-0.5-0.2-0.5-0.5v-3c0-0.3,0.2-0.5,0.5-0.5h3
		c0.3,0,0.5,0.2,0.5,0.5V19.7z M12.2,0C5.4,0,0,5.5,0,12.2s5.5,12.2,12.2,12.2s12.2-5.5,12.2-12.2S19,0,12.2,0z M15,12
		c-1,0.6-1.3,1.2-1.3,2.4c0,0.1-0.1,0.2-0.2,0.2h-2.6c-0.1,0-0.2-0.2-0.2-0.2v-1c0-1.1,0.6-2,1.8-2.9c0.1-0.1,1-0.6,1-1.4
		C13.5,8.4,13,8,12.3,8c-1,0-1.6,0.5-1.6,1.5c0,0.1-0.1,0.2-0.2,0.2h-0.3H7.6c-0.1,0-0.1,0-0.2-0.1c0,0-0.1-0.1-0.1-0.2
		c0.1-2.7,1.9-4.3,4.8-4.3c2.2,0,4.6,1.2,4.6,3.9C16.9,10.8,16.5,11.1,15,12z"/>
</g>
</svg>
